-vsync is deprecated. Use -fps_mode
Passing a number to -vsync is deprecated, use a string argument as described in the manual.
[h264 @ 0x5613ba0dd480] Reinit context to 3840x2160, pix_fmt: yuvj420p
Input #0, mov,mp4,m4a,3gp,3g2,mj2, from '/var/www/html/project/media/video/original/1000276795.mp4':
  Metadata:
    major_brand     : mp42
    minor_version   : 0
    compatible_brands: isommp42
    creation_time   : 2026-03-18T11:09:51.000000Z
    com.android.version: 15
  Duration: 00:00:09.09, start: 0.000000, bitrate: 43330 kb/s
  Stream #0:0[0x1](eng): Audio: aac (LC) (mp4a / 0x6134706D), 48000 Hz, stereo, fltp, 256 kb/s (default)
    Metadata:
      creation_time   : 2026-03-18T11:09:51.000000Z
      handler_name    : SoundHandle
      vendor_id       : [0][0][0][0]
  Stream #0:1[0x2](eng): Video: h264 (High), 1 reference frame (avc1 / 0x31637661), yuvj420p(pc, bt470bg/bt470bg/smpte170m, progressive, left), 3840x2160, 49334 kb/s, 27.09 fps, 30 tbr, 90k tbn (default)
    Metadata:
      creation_time   : 2026-03-18T11:09:51.000000Z
      handler_name    : VideoHandle
      vendor_id       : [0][0][0][0]
    Side data:
      displaymatrix: rotation of -90.00 degrees
Input #1, png_pipe, from '/var/www/html/project/static/images/templates/logo_vertical.png':
  Duration: N/A, bitrate: N/A
  Stream #1:0: Video: png, 1 reference frame, rgba(pc, gbr/unknown/unknown), 1920x1080 [SAR 2835:2835 DAR 16:9], 25 fps, 25 tbr, 25 tbn
[h264 @ 0x5613ba0b2940] Reinit context to 1280x720, pix_fmt: yuv420p
Input #2, mov,mp4,m4a,3gp,3g2,mj2, from '/var/www/html/project/static/images/templates/Codino.mp4':
  Metadata:
    major_brand     : mp42
    minor_version   : 1
    compatible_brands: isommp41mp42
    creation_time   : 2021-07-11T07:02:58.000000Z
  Duration: 00:00:02.00, start: 0.000000, bitrate: 1007 kb/s
  Stream #2:0[0x1](ita): Audio: aac (LC) (mp4a / 0x6134706D), 44100 Hz, stereo, fltp, 102 kb/s (default)
    Metadata:
      creation_time   : 2021-07-11T07:02:58.000000Z
      handler_name    : Core Media Audio
      vendor_id       : [0][0][0][0]
  Stream #2:1[0x2](und): Video: h264 (High), 1 reference frame (avc1 / 0x31637661), yuv420p(tv, bt709, progressive, left), 1280x720 [SAR 1:1 DAR 16:9], 813 kb/s, 25 fps, 25 tbr, 25k tbn (default)
    Metadata:
      creation_time   : 2021-07-11T07:02:58.000000Z
      handler_name    : Core Media Video
      vendor_id       : [0][0][0][0]
[out#0/mp4 @ 0x5613bbe8ff80] Adding streams from explicit maps...
[out#0/mp4 @ 0x5613bbe8ff80] Creating output stream from an explicitly mapped complex filtergraph 0, output [v]
[vost#0:0/libx264 @ 0x5613bbe90d00] Created video stream from complex filtergraph 0:[concat]
[vost#0:0/libx264 @ 0x5613bbe90d00] 
[out#0/mp4 @ 0x5613bbe8ff80] Creating output stream from an explicitly mapped complex filtergraph 0, output [a]
[aost#0:1/aac @ 0x5613bbe92800] Created audio stream from complex filtergraph 0:[concat]
[aost#0:1/aac @ 0x5613bbe92800] 
Stream mapping:
  Stream #0:0 (aac) -> concat
  Stream #0:1 (h264) -> split:default
  Stream #1:0 (png) -> scale:default
  Stream #2:0 (aac) -> concat
  Stream #2:1 (h264) -> scale:default
  concat -> Stream #0:0 (libx264)
  concat -> Stream #0:1 (aac)
Press [q] to stop, [?] for help
[h264 @ 0x5613ba0bb840] Reinit context to 3840x2160, pix_fmt: yuvj420p
[in#1/png_pipe @ 0x5613ba0b51c0] EOF while reading input
[in#1/png_pipe @ 0x5613ba0b51c0] Terminating demuxer thread
[vist#1:0/png @ 0x5613ba0bf480] Decoder thread received EOF packet
[vist#1:0/png @ 0x5613ba0bf480] Decoder returned EOF, finishing
[vist#1:0/png @ 0x5613ba0bf480] Terminating decoder thread
[h264 @ 0x5613bb041e00] Reinit context to 1280x720, pix_fmt: yuv420p
[Parsed_scale_1 @ 0x5613bbf73400] w:1280 h:720 flags:'' interl:0
[Parsed_scale_4 @ 0x5613bbf80b00] w:-1 h:720 flags:'' interl:0
[Parsed_scale_7 @ 0x5613bbf8e200] w:1280 h:720 flags:'' interl:0
[Parsed_scale_9 @ 0x5613bbf9b680] w:1280 h:720 flags:'' interl:0
[graph 0 input from stream 0:1 @ 0x5613bbf6f400] w:3840 h:2160 pixfmt:yuvj420p tb:1/90000 fr:30/1 sar:0/1
[graph 0 input from stream 1:0 @ 0x5613bbf70140] w:1920 h:1080 pixfmt:rgba tb:1/25 fr:25/1 sar:2835/2835
[graph 0 input from stream 2:1 @ 0x5613ba134e40] w:1280 h:720 pixfmt:yuv420p tb:1/25000 fr:25/1 sar:1/1
[graph_0_in_0_0 @ 0x5613bbf6fc00] tb:1/48000 samplefmt:fltp samplerate:48000 chlayout:stereo
[graph_0_in_2_0 @ 0x5613bbf6f780] tb:1/44100 samplefmt:fltp samplerate:44100 chlayout:stereo
[Parsed_concat_12 @ 0x5613bbfa8d80] auto-inserting filter 'auto_aresample_0' between the filter 'graph_0_in_2_0' and the filter 'Parsed_concat_12'
[transpose @ 0x5613ba3ff240] w:3840 h:2160 dir:1 -> w:2160 h:3840 rotation:clockwise vflip:0
[swscaler @ 0x5613bbfc5200] deprecated pixel format used, make sure you did set range correctly
[Parsed_scale_1 @ 0x5613bbf73400] w:2160 h:3840 fmt:yuvj420p sar:0/1 -> w:1280 h:720 fmt:yuvj420p sar:0/1 flags:0x00000004
[Parsed_boxblur_2 @ 0x5613bbf80600] luma_radius:36 luma_power:1 chroma_radius:18 chroma_power:1 alpha_radius:36 alpha_power:1 w:1280 chroma_w:640 h:720 chroma_h:360
[Parsed_setsar_3 @ 0x5613bbf80840] w:1280 h:720 sar:0/1 dar:16/9 -> sar:1/1 dar:16/9
[swscaler @ 0x5613bc9ce800] deprecated pixel format used, make sure you did set range correctly
[Parsed_scale_4 @ 0x5613bbf80b00] w:2160 h:3840 fmt:yuvj420p sar:0/1 -> w:405 h:720 fmt:yuva420p sar:0/1 flags:0x00000004
[Parsed_setsar_5 @ 0x5613bbf8dd00] w:405 h:720 sar:0/1 dar:9/16 -> sar:1/1 dar:9/16
[Parsed_overlay_6 @ 0x5613bbf8df40] main w:1280 h:720 fmt:yuvj420p overlay w:405 h:720 fmt:yuva420p
[Parsed_overlay_6 @ 0x5613bbf8df40] [framesync @ 0x5613ba0dfb28] Selected 1/90000 time base
[Parsed_overlay_6 @ 0x5613bbf8df40] [framesync @ 0x5613ba0dfb28] Sync level 2
[Parsed_scale_7 @ 0x5613bbf8e200] w:1920 h:1080 fmt:rgba sar:2835/2835 -> w:1280 h:720 fmt:yuva420p sar:1/1 flags:0x00000004
[Parsed_setsar_8 @ 0x5613bbf9b3c0] w:1280 h:720 sar:1/1 dar:16/9 -> sar:1/1 dar:16/9
[Parsed_overlay_11 @ 0x5613bbfa8b40] main w:1280 h:720 fmt:yuvj420p overlay w:1280 h:720 fmt:yuva420p
[Parsed_overlay_11 @ 0x5613bbfa8b40] [framesync @ 0x5613ba0e1ea8] Selected 1/90000 time base
[Parsed_overlay_11 @ 0x5613bbfa8b40] [framesync @ 0x5613ba0e1ea8] Sync level 2
[swscaler @ 0x5613bd875600] deprecated pixel format used, make sure you did set range correctly
[Parsed_scale_9 @ 0x5613bbf9b680] w:1280 h:720 fmt:yuv420p sar:1/1 -> w:1280 h:720 fmt:yuvj420p sar:1/1 flags:0x00000004
[Parsed_setsar_10 @ 0x5613bbfa8880] w:1280 h:720 sar:1/1 dar:16/9 -> sar:1/1 dar:16/9
[auto_aresample_0 @ 0x5613bbfad6c0] ch:2 chl:stereo fmt:fltp r:44100Hz -> ch:2 chl:stereo fmt:fltp r:48000Hz
[Parsed_concat_12 @ 0x5613bbfa8d80] Video inputs have different frame rates, output will be VFR
[Parsed_scale_7 @ 0x5613bbf8e200] w:1920 h:1080 fmt:rgba sar:2835/2835 -> w:1280 h:720 fmt:yuva420p sar:1/1 flags:0x00000004
    Last message repeated 2 times
[swscaler @ 0x5613bd8755c0] deprecated pixel format used, make sure you did set range correctly
[Parsed_scale_9 @ 0x5613bbf9b680] w:1280 h:720 fmt:yuv420p sar:1/1 -> w:1280 h:720 fmt:yuvj420p sar:1/1 flags:0x00000004
[swscaler @ 0x5613bd8755c0] deprecated pixel format used, make sure you did set range correctly
[Parsed_scale_9 @ 0x5613bbf9b680] w:1280 h:720 fmt:yuv420p sar:1/1 -> w:1280 h:720 fmt:yuvj420p sar:1/1 flags:0x00000004
[swscaler @ 0x5613bd8755c0] deprecated pixel format used, make sure you did set range correctly
[Parsed_scale_9 @ 0x5613bbf9b680] w:1280 h:720 fmt:yuv420p sar:1/1 -> w:1280 h:720 fmt:yuvj420p sar:1/1 flags:0x00000004
[swscaler @ 0x5613bbfc5200] deprecated pixel format used, make sure you did set range correctly
[Parsed_scale_1 @ 0x5613bbf73400] w:2160 h:3840 fmt:yuvj420p sar:0/1 -> w:1280 h:720 fmt:yuvj420p sar:0/1 flags:0x00000004
[swscaler @ 0x5613bbfc5200] deprecated pixel format used, make sure you did set range correctly
[Parsed_scale_1 @ 0x5613bbf73400] w:2160 h:3840 fmt:yuvj420p sar:0/1 -> w:1280 h:720 fmt:yuvj420p sar:0/1 flags:0x00000004
[swscaler @ 0x5613bbfc5200] deprecated pixel format used, make sure you did set range correctly
[Parsed_scale_1 @ 0x5613bbf73400] w:2160 h:3840 fmt:yuvj420p sar:0/1 -> w:1280 h:720 fmt:yuvj420p sar:0/1 flags:0x00000004
[swscaler @ 0x5613bc9ce800] deprecated pixel format used, make sure you did set range correctly
[Parsed_scale_4 @ 0x5613bbf80b00] w:2160 h:3840 fmt:yuvj420p sar:0/1 -> w:405 h:720 fmt:yuva420p sar:0/1 flags:0x00000004
[swscaler @ 0x5613bc9ce800] deprecated pixel format used, make sure you did set range correctly
[Parsed_scale_4 @ 0x5613bbf80b00] w:2160 h:3840 fmt:yuvj420p sar:0/1 -> w:405 h:720 fmt:yuva420p sar:0/1 flags:0x00000004
[swscaler @ 0x5613bcb3ca00] deprecated pixel format used, make sure you did set range correctly
[Parsed_scale_4 @ 0x5613bbf80b00] w:2160 h:3840 fmt:yuvj420p sar:0/1 -> w:405 h:720 fmt:yuva420p sar:0/1 flags:0x00000004
[libx264 @ 0x5613bbe910c0] using SAR=1/1
[libx264 @ 0x5613bbe910c0] MB rate (3600000000) > level limit (16711680)
[libx264 @ 0x5613bbe910c0] using cpu capabilities: MMX2 SSE2Fast SSSE3 SSE4.2 AVX FMA3 BMI2 AVX2
[libx264 @ 0x5613bbe910c0] profile High, level 6.2, 4:2:0, 8-bit
[libx264 @ 0x5613bbe910c0] 264 - core 164 r3108 31e19f9 - H.264/MPEG-4 AVC codec - Copyleft 2003-2023 - http://www.videolan.org/x264.html - options: cabac=1 ref=1 deblock=1:0:0 analyse=0x3:0x113 me=hex subme=2 psy=1 psy_rd=1.00:0.00 mixed_ref=0 me_range=16 chroma_me=1 trellis=0 8x8dct=1 cqm=0 deadzone=21,11 fast_pskip=1 chroma_qp_offset=0 threads=22 lookahead_threads=5 sliced_threads=0 nr=0 decimate=1 interlaced=0 bluray_compat=0 constrained_intra=0 bframes=3 b_pyramid=2 b_adapt=1 b_bias=0 direct=1 weightb=1 open_gop=0 weightp=1 keyint=250 keyint_min=25 scenecut=40 intra_refresh=0 rc_lookahead=10 rc=crf mbtree=1 crf=18.0 qcomp=0.60 qpmin=0 qpmax=69 qpstep=4 ip_ratio=1.40 aq=1:1.00
Output #0, mp4, to '/var/www/html/project/media/video/watermarks/1000276795.mp4':
  Metadata:
    major_brand     : mp42
    minor_version   : 0
    compatible_brands: isommp42
    com.android.version: 15
    encoder         : Lavf60.16.100
  Stream #0:0: Video: h264, 1 reference frame (avc1 / 0x31637661), yuvj420p(pc, bt470bg/bt470bg/smpte170m, progressive, left), 1280x720 (0x0) [SAR 1:1 DAR 16:9], q=2-31, 1000k tbn
    Metadata:
      encoder         : Lavc60.31.102 libx264
    Side data:
      cpb: bitrate max/min/avg: 0/0/0 buffer size: 0 vbv_delay: N/A
  Stream #0:1: Audio: aac (LC) (mp4a / 0x6134706D), 48000 Hz, stereo, fltp, delay 1024, 128 kb/s
    Metadata:
      encoder         : Lavc60.31.102 aac
[in#0/mov,mp4,m4a,3gp,3g2,mj2 @ 0x5613ba0a7e80] EOF while reading input
[in#0/mov,mp4,m4a,3gp,3g2,mj2 @ 0x5613ba0a7e80] Terminating demuxer thread
[aist#0:0/aac @ 0x5613ba0a73c0] Decoder thread received EOF packet
[aist#0:0/aac @ 0x5613ba0a73c0] Decoder returned EOF, finishing
[aist#0:0/aac @ 0x5613ba0a73c0] Terminating decoder thread
[Parsed_concat_12 @ 0x5613bbfa8d80] EOF on in0:a0, 1 streams left in segment.
[vist#0:1/h264 @ 0x5613ba0a7540] Decoder thread received EOF packet
[vist#0:1/h264 @ 0x5613ba0a7540] Decoder returned EOF, finishing
[vist#0:1/h264 @ 0x5613ba0a7540] Terminating decoder thread
[Parsed_overlay_6 @ 0x5613bbf8df40] [framesync @ 0x5613ba0dfb28] Sync level 1
[Parsed_overlay_6 @ 0x5613bbf8df40] [framesync @ 0x5613ba0dfb28] Sync level 0
[Parsed_overlay_11 @ 0x5613bbfa8b40] [framesync @ 0x5613ba0e1ea8] Sync level 0
[Parsed_concat_12 @ 0x5613bbfa8d80] EOF on in0:v0, 0 streams left in segment.
[Parsed_concat_12 @ 0x5613bbfa8d80] Segment finished at pts=9096913
[in#2/mov,mp4,m4a,3gp,3g2,mj2 @ 0x5613ba0c9100] EOF while reading input
[in#2/mov,mp4,m4a,3gp,3g2,mj2 @ 0x5613ba0c9100] Terminating demuxer thread
[aist#2:0/aac @ 0x5613ba11dd40] Decoder thread received EOF packet
[aist#2:0/aac @ 0x5613ba11dd40] Decoder returned EOF, finishing
[aist#2:0/aac @ 0x5613ba11dd40] Terminating decoder thread
[vist#2:1/h264 @ 0x5613ba0b4340] Decoder thread received EOF packet
[vist#2:1/h264 @ 0x5613ba0b4340] Decoder returned EOF, finishing
[vist#2:1/h264 @ 0x5613ba0b4340] Terminating decoder thread
[Parsed_concat_12 @ 0x5613bbfa8d80] EOF on in1:v0, 1 streams left in segment.
[Parsed_concat_12 @ 0x5613bbfa8d80] EOF on in1:a0, 0 streams left in segment.
[Parsed_concat_12 @ 0x5613bbfa8d80] Segment finished at pts=11115600
No more output streams to write to, finishing.
[out#0/mp4 @ 0x5613bbe8ff80] All streams finished
[out#0/mp4 @ 0x5613bbe8ff80] Terminating muxer thread
[AVIOContext @ 0x5613bbf5db40] Statistics: 2420225 bytes written, 2 seeks, 13 writeouts
[out#0/mp4 @ 0x5613bbe8ff80] Output file #0 (/var/www/html/project/media/video/watermarks/1000276795.mp4):
[out#0/mp4 @ 0x5613bbe8ff80]   Output stream #0:0 (video): 261 frames encoded; 261 packets muxed (2243846 bytes); 
[out#0/mp4 @ 0x5613bbe8ff80]   Output stream #0:1 (audio): 522 frames encoded (533549 samples); 523 packets muxed (164584 bytes); 
[out#0/mp4 @ 0x5613bbe8ff80]   Total: 784 packets (2408430 bytes) muxed
[out#0/mp4 @ 0x5613bbe8ff80] video:2191kB audio:161kB subtitle:0kB other streams:0kB global headers:0kB muxing overhead: 0.489572%
frame=  261 fps= 43 q=-1.0 Lsize=    2363kB time=00:00:11.11 bitrate=1742.0kbits/s speed=1.84x    
[AVIOContext @ 0x5613ba0e2500] Statistics: 2363 bytes written, 0 seeks, 12 writeouts
[libx264 @ 0x5613bbe910c0] frame I:2     Avg QP: 9.71  size: 26922
[libx264 @ 0x5613bbe910c0] frame P:90    Avg QP:16.18  size: 13827
[libx264 @ 0x5613bbe910c0] frame B:169   Avg QP:18.72  size:  5591
[libx264 @ 0x5613bbe910c0] consecutive B-frames: 10.0%  7.7% 10.3% 72.0%
[libx264 @ 0x5613bbe910c0] mb I  I16..4: 63.2% 24.4% 12.4%
[libx264 @ 0x5613bbe910c0] mb P  I16..4: 13.7% 20.3%  2.3%  P16..4: 13.9%  7.1%  2.9%  0.0%  0.0%    skip:39.7%
[libx264 @ 0x5613bbe910c0] mb B  I16..4:  4.5%  3.7%  0.1%  B16..8: 19.3%  6.5%  0.6%  direct: 8.7%  skip:56.6%  L0:44.4% L1:45.3% BI:10.3%
[libx264 @ 0x5613bbe910c0] 8x8 transform intra:51.3% inter:35.5%
[libx264 @ 0x5613bbe910c0] coded y,uvDC,uvAC intra: 33.8% 29.2% 4.0% inter: 5.5% 15.1% 0.7%
[libx264 @ 0x5613bbe910c0] i16 v,h,dc,p: 28% 30%  8% 35%
[libx264 @ 0x5613bbe910c0] i8 v,h,dc,ddl,ddr,vr,hd,vl,hu: 21% 42% 14%  3%  4%  3%  6%  4%  3%
[libx264 @ 0x5613bbe910c0] i4 v,h,dc,ddl,ddr,vr,hd,vl,hu: 35% 21% 15%  4%  6%  4%  6%  4%  4%
[libx264 @ 0x5613bbe910c0] i8c dc,h,v,p: 57% 25% 14%  5%
[libx264 @ 0x5613bbe910c0] Weighted P-Frames: Y:20.0% UV:2.2%
[libx264 @ 0x5613bbe910c0] kb/s:1831.45
[aac @ 0x5613bbe92bc0] Qavg: 7088.533
[in#0/mov,mp4,m4a,3gp,3g2,mj2 @ 0x5613ba0a7e80] Input file #0 (/var/www/html/project/media/video/original/1000276795.mp4):
[in#0/mov,mp4,m4a,3gp,3g2,mj2 @ 0x5613ba0a7e80]   Input stream #0:0 (audio): 418 packets read (285512 bytes); 418 frames decoded; 0 decode errors (428032 samples); 
[in#0/mov,mp4,m4a,3gp,3g2,mj2 @ 0x5613ba0a7e80]   Input stream #0:1 (video): 211 packets read (48030752 bytes); 211 frames decoded; 0 decode errors; 
[in#0/mov,mp4,m4a,3gp,3g2,mj2 @ 0x5613ba0a7e80]   Total: 629 packets (48316264 bytes) demuxed
[AVIOContext @ 0x5613ba0e2000] Statistics: 48387176 bytes read, 3 seeks
[in#1/png_pipe @ 0x5613ba0b51c0] Input file #1 (/var/www/html/project/static/images/templates/logo_vertical.png):
[in#1/png_pipe @ 0x5613ba0b51c0]   Input stream #1:0 (video): 1 packets read (93903 bytes); 1 frames decoded; 0 decode errors; 
[in#1/png_pipe @ 0x5613ba0b51c0]   Total: 1 packets (93903 bytes) demuxed
[AVIOContext @ 0x5613ba0a9240] Statistics: 93903 bytes read, 0 seeks
[in#2/mov,mp4,m4a,3gp,3g2,mj2 @ 0x5613ba0c9100] Input file #2 (/var/www/html/project/static/images/templates/Codino.mp4):
[in#2/mov,mp4,m4a,3gp,3g2,mj2 @ 0x5613ba0c9100]   Input stream #2:0 (audio): 89 packets read (26579 bytes); 87 frames decoded; 0 decode errors (89024 samples); 
[in#2/mov,mp4,m4a,3gp,3g2,mj2 @ 0x5613ba0c9100]   Input stream #2:1 (video): 50 packets read (203365 bytes); 50 frames decoded; 0 decode errors; 
[in#2/mov,mp4,m4a,3gp,3g2,mj2 @ 0x5613ba0c9100]   Total: 139 packets (229944 bytes) demuxed
[AVIOContext @ 0x5613ba0bf600] Statistics: 1629219 bytes read, 37 seeks
